# xmcd
#
# Track frame offsets:
#	150
#	21627
#	41832
#	61687
#	84427
#	113527
#	136305
#	156412
#
# Disc length: 2350 seconds
#
# Revision: 1
# Processed by: cddbd v1.5PL3 Copyright (c) Steve Scherf et al.
# Submitted via: CDex 1.50Beta5
#
DISCID=64092c08
DTITLE=dip in the pool - WONDER 8
DYEAR=1900
DGENRE=Pop
TTITLE0=Lucy
TTITLE1=I feel so good
TTITLE2=Spring of Love
TTITLE3=緑の光線
TTITLE4=She's a fruit
TTITLE5=On LINE
TTITLE6=Wisdom of the hill
TTITLE7=トリコロール
EXTD=
EXTT0=
EXTT1=
EXTT2=
EXTT3=
EXTT4=
EXTT5=
EXTT6=
EXTT7=
PLAYORDER=
